<svg xmlns="http://www.w3.org/2000/svg" viewBox="0 0 149 274"><defs><style>.cls-1{fill:#1e5e30;}.cls-2{fill:#ed2227;}.cls-3{fill:#fff;}.cls-4{fill:#277d3c;}</style></defs><g id="Layer_1" data-name="Layer 1"><polygon class="cls-1" points="65.38 220.06 66.48 196.94 46.13 181.56 27.49 172.24 8.85 172.24 8.85 209.51 18.17 218.83 36.81 228.15 66.99 228.15 65.38 220.06"/><polygon class="cls-2" points="18.17 56.91 27.49 56.91 55.44 84.87 92.72 84.87 120.67 56.91 129.99 56.91 139.31 75.55 139.31 103.5 129.99 122.14 111.35 131.46 36.81 131.46 18.17 122.14 8.85 103.5 8.85 75.55 18.17 56.91"/><polygon class="cls-3" points="8.85 10.32 36.81 10.32 46.13 28.95 55.44 47.59 64.76 56.91 83.4 56.91 92.72 47.59 102.04 28.95 111.35 10.32 139.31 10.32 139.31 38.27 129.99 47.59 120.67 56.91 111.35 66.23 102.04 75.55 92.72 84.87 55.44 84.87 46.13 75.55 36.81 66.23 27.49 56.91 18.17 47.59 8.85 38.27 8.85 10.32"/><polygon class="cls-4" points="74.08 141.85 74.08 274 64.76 274 64.76 140.78 74.08 141.85"/><rect class="cls-1" x="74.08" y="143.11" width="9.32" height="130.89"/><polygon class="cls-1" points="77.49 232.81 111.35 228.15 129.99 218.83 139.31 209.51 143.97 179.23 139.31 172.24 127.17 167.58 120.67 172.24 102.04 181.56 81.89 198.04 77.49 232.81"/><rect class="cls-3" x="18.17" y="75.55" width="9.32" height="9.32"/><rect class="cls-3" x="18.17" y="112.82" width="9.32" height="9.32"/><rect class="cls-3" x="27.49" y="112.82" width="9.32" height="9.32"/><rect class="cls-3" x="55.44" y="94.18" width="9.32" height="9.32"/><rect class="cls-3" x="64.76" y="94.18" width="9.32" height="9.32"/><rect class="cls-3" x="64.76" y="103.5" width="9.32" height="9.32"/><rect class="cls-3" x="102.04" y="103.5" width="9.32" height="9.32"/><rect class="cls-3" x="102.04" y="112.82" width="9.32" height="9.32"/><rect class="cls-3" x="111.35" y="103.5" width="9.32" height="9.32"/><rect class="cls-3" x="120.67" y="66.23" width="9.32" height="9.32"/><rect class="cls-3" x="111.35" y="112.82" width="9.32" height="9.32"/><rect class="cls-4" x="92.72" y="190.88" width="9.32" height="9.32"/><rect class="cls-4" x="92.72" y="200.19" width="9.32" height="9.32"/><rect class="cls-4" x="102.04" y="181.56" width="9.32" height="9.32"/><rect class="cls-4" x="111.35" y="181.56" width="9.32" height="9.32"/><rect class="cls-4" x="120.67" y="172.24" width="9.32" height="9.32"/><rect class="cls-4" x="46.12" y="200.19" width="9.32" height="9.32"/><rect class="cls-4" x="46.12" y="190.88" width="9.32" height="9.32"/><rect class="cls-4" x="36.81" y="181.56" width="9.32" height="9.32"/><rect class="cls-4" x="27.49" y="181.56" width="9.32" height="9.32"/><rect class="cls-4" x="18.17" y="172.24" width="9.32" height="9.32"/><rect class="cls-4" x="8.85" y="172.24" width="9.32" height="9.32"/><rect class="cls-4" x="8.85" y="181.56" width="9.32" height="9.32"/><rect class="cls-4" x="8.85" y="190.88" width="9.32" height="9.32"/><rect class="cls-4" x="8.85" y="200.19" width="9.32" height="9.32"/><rect class="cls-3" x="55.44" y="103.5" width="9.32" height="9.32"/><rect x="83.4" y="264.25" width="9.32" height="9.32"/><rect x="83.4" y="236.29" width="9.32" height="9.32"/><rect x="83.4" y="226.97" width="9.32" height="9.32"/><rect x="83.4" y="217.65" width="9.32" height="9.32"/><rect x="83.4" y="208.34" width="9.32" height="9.32"/><rect x="92.72" y="228.15" width="9.32" height="9.32"/><rect x="92.72" y="218.83" width="9.32" height="9.32"/><rect x="102.04" y="209.51" width="9.32" height="9.32"/><rect x="111.35" y="200.19" width="9.32" height="9.32"/><rect x="120.67" y="190.88" width="9.32" height="9.32"/><rect x="111.35" y="218.83" width="9.32" height="9.32"/><rect x="120.67" y="218.83" width="9.32" height="9.32"/><rect x="129.99" y="209.51" width="9.32" height="9.32"/><rect x="139.31" y="200.19" width="9.32" height="9.32"/><rect x="139.31" y="190.88" width="9.32" height="9.32"/><rect x="139.31" y="181.56" width="9.32" height="9.32"/><rect x="139.31" y="172.24" width="9.32" height="9.32"/><rect x="129.99" y="162.92" width="9.32" height="9.32"/><rect x="120.67" y="162.92" width="9.32" height="9.32"/><rect x="111.35" y="172.24" width="9.32" height="9.32"/><rect x="102.04" y="172.24" width="9.32" height="9.32"/><rect x="92.72" y="181.56" width="9.32" height="9.32"/><rect x="83.4" y="189.7" width="9.32" height="9.32"/><rect x="83.4" y="180.38" width="9.32" height="9.32"/><rect x="83.4" y="171.06" width="9.32" height="9.32"/><rect x="83.4" y="161.74" width="9.32" height="9.32"/><rect x="83.4" y="154.75" width="9.32" height="9.32"/><rect x="83.4" y="145.44" width="9.32" height="9.32"/><rect x="55.44" y="189.7" width="9.32" height="9.32"/><rect x="55.44" y="180.38" width="9.32" height="9.32"/><rect x="55.44" y="171.06" width="9.32" height="9.32"/><rect x="55.44" y="161.74" width="9.32" height="9.32"/><rect x="46.12" y="181.56" width="9.32" height="9.32"/><rect x="36.81" y="172.24" width="9.32" height="9.32"/><rect x="27.49" y="172.24" width="9.32" height="9.32"/><rect x="18.17" y="181.56" width="9.32" height="9.32"/><rect x="18.17" y="190.88" width="9.32" height="9.32"/><rect x="27.49" y="200.19" width="9.32" height="9.32"/><rect x="36.81" y="209.51" width="9.32" height="9.32"/><rect x="46.12" y="218.83" width="9.32" height="9.32"/><rect x="27.49" y="218.83" width="9.32" height="9.32"/><rect x="18.17" y="218.83" width="9.32" height="9.32"/><rect x="46.12" y="228.15" width="9.32" height="9.32"/><rect x="55.44" y="208.34" width="9.32" height="9.32"/><rect x="55.44" y="217.65" width="9.32" height="9.32"/><rect x="36.81" y="228.15" width="9.32" height="9.32"/><rect x="8.85" y="209.51" width="9.32" height="9.32"/><rect x="-0.47" y="200.19" width="9.32" height="9.32"/><rect x="-0.47" y="190.88" width="9.32" height="9.32"/><rect x="-0.47" y="181.56" width="9.32" height="9.32"/><rect x="-0.47" y="172.24" width="9.32" height="9.32"/><rect x="8.85" y="162.92" width="9.32" height="9.32"/><rect x="18.17" y="162.92" width="9.32" height="9.32"/><rect x="55.44" y="154.75" width="9.32" height="9.32"/><rect x="55.44" y="145.44" width="9.32" height="9.32"/><rect x="83.4" y="136.12" width="9.32" height="9.32"/><rect x="83.4" y="131.46" width="9.32" height="9.32"/><rect x="92.72" y="131.46" width="9.32" height="9.32"/><rect x="102.04" y="131.46" width="9.32" height="9.32"/><rect x="111.35" y="122.14" width="9.32" height="9.32"/><rect x="120.67" y="122.14" width="9.32" height="9.32"/><rect x="129.99" y="112.82" width="9.32" height="9.32"/><rect x="129.99" y="103.5" width="9.32" height="9.32"/><rect x="139.31" y="94.18" width="9.32" height="9.32"/><rect x="139.31" y="84.87" width="9.32" height="9.32"/><rect x="139.31" y="75.55" width="9.32" height="9.32"/><rect x="129.99" y="66.23" width="9.32" height="9.32"/><rect x="129.99" y="56.91" width="9.32" height="9.32"/><rect x="120.67" y="47.59" width="9.32" height="9.32"/><rect x="111.35" y="56.91" width="9.32" height="9.32"/><rect x="102.04" y="66.23" width="9.32" height="9.32"/><rect x="92.72" y="75.55" width="9.32" height="9.32"/><rect x="83.4" y="84.87" width="9.32" height="9.32"/><rect x="74.08" y="84.87" width="9.32" height="9.32"/><rect x="64.76" y="84.87" width="9.32" height="9.32"/><rect x="55.44" y="84.87" width="9.32" height="9.32"/><rect x="46.12" y="75.55" width="9.32" height="9.32"/><rect x="36.81" y="66.23" width="9.32" height="9.32"/><rect x="27.49" y="56.91" width="9.32" height="9.32"/><rect x="18.17" y="47.59" width="9.32" height="9.32"/><rect x="8.85" y="38.27" width="9.32" height="9.32"/><rect x="-0.47" y="28.96" width="9.32" height="9.32"/><rect x="-0.47" y="19.64" width="9.32" height="9.32"/><rect x="-0.47" y="10.32" width="9.32" height="9.32"/><rect x="8.85" y="1" width="9.32" height="9.32"/><rect x="18.17" y="1" width="9.32" height="9.32"/><rect x="27.49" y="1" width="9.32" height="9.32"/><rect x="36.81" y="10.32" width="9.32" height="9.32"/><rect x="36.81" y="19.64" width="9.32" height="9.32"/><rect x="46.12" y="28.96" width="9.32" height="9.32"/><rect x="46.12" y="38.27" width="9.32" height="9.32"/><rect x="55.44" y="47.59" width="9.32" height="9.32"/><rect x="64.76" y="56.91" width="9.32" height="9.32"/><rect x="74.08" y="56.91" width="9.32" height="9.32"/><rect x="83.4" y="47.59" width="9.32" height="9.32"/><rect x="92.72" y="38.27" width="9.32" height="9.32"/><rect x="92.72" y="28.96" width="9.32" height="9.32"/><rect x="102.04" y="19.64" width="9.32" height="9.32"/><rect x="102.04" y="10.32" width="9.32" height="9.32"/><rect x="111.35" y="1" width="9.32" height="9.32"/><rect x="120.67" y="1" width="9.32" height="9.32"/><rect x="129.99" y="1" width="9.32" height="9.32"/><rect x="139.31" y="10.32" width="9.32" height="9.32"/><rect x="139.31" y="19.64" width="9.32" height="9.32"/><rect x="139.31" y="28.96" width="9.32" height="9.32"/><rect x="129.99" y="38.27" width="9.32" height="9.32"/><rect x="8.85" y="56.91" width="9.32" height="9.32"/><rect x="8.85" y="66.23" width="9.32" height="9.32"/><rect x="-0.47" y="75.55" width="9.32" height="9.32"/><rect x="-0.47" y="84.87" width="9.32" height="9.32"/><rect x="-0.47" y="94.18" width="9.32" height="9.32"/><rect x="8.85" y="103.5" width="9.32" height="9.32"/><rect x="8.85" y="112.82" width="9.32" height="9.32"/><rect x="18.17" y="122.14" width="9.32" height="9.32"/><rect x="27.49" y="122.14" width="9.32" height="9.32"/><rect x="36.81" y="131.46" width="9.32" height="9.32"/><rect x="46.12" y="131.46" width="9.32" height="9.32"/><rect x="55.44" y="131.46" width="9.32" height="9.32"/><rect x="64.76" y="131.46" width="9.32" height="9.32"/><rect x="74.08" y="131.46" width="9.32" height="9.32"/><rect x="55.44" y="140.78" width="9.32" height="9.32"/><rect x="64.76" y="140.78" width="9.32" height="9.32"/><rect x="74.08" y="140.78" width="9.32" height="9.32"/><rect x="74.08" y="150.1" width="9.32" height="9.32"/><rect x="120.67" y="181.56" width="9.32" height="9.32"/><rect x="102.04" y="228.15" width="9.32" height="9.32"/><rect x="83.4" y="245.61" width="9.32" height="9.32"/><rect x="83.4" y="254.93" width="9.32" height="9.32"/><rect x="55.44" y="226.97" width="9.32" height="9.32"/><rect x="55.44" y="236.29" width="9.32" height="9.32"/><rect x="55.44" y="245.61" width="9.32" height="9.32"/><rect x="55.44" y="254.93" width="9.32" height="9.32"/><rect x="55.44" y="264.25" width="9.32" height="9.32"/></g></svg>