<svg xmlns="http://www.w3.org/2000/svg" viewBox="0 0 249 274"><defs><style>.cls-1{fill:#7bc144;}.cls-2{fill:#117039;}</style></defs><g id="Layer_1" data-name="Layer 1"><rect class="cls-1" x="5.19" y="8.07" width="239.03" height="112.34"/><rect class="cls-1" x="19.53" y="125.2" width="205.57" height="148.2"/><polygon class="cls-2" points="2.8 19.96 44.63 19.96 44.63 123.3 26.4 123.3 26.4 28.39 2.8 28.39 2.8 19.96"/><polygon class="cls-2" points="87.16 120.42 87.16 18.83 241.83 18.83 241.83 118.97 230.61 118.97 230.61 26 179.89 26 179.89 120.91 117.26 120.91 117.26 26 97.11 26 97.11 120.91 87.16 120.42"/><rect class="cls-2" x="179.68" y="39.15" width="9.56" height="9.56"/><rect class="cls-2" x="179.68" y="58.27" width="9.56" height="9.56"/><rect class="cls-2" x="179.68" y="77.39" width="9.56" height="9.56"/><rect class="cls-2" x="179.68" y="96.52" width="9.56" height="9.56"/><rect class="cls-2" x="189.24" y="29.59" width="9.56" height="9.56"/><rect class="cls-2" x="189.24" y="48.71" width="9.56" height="9.56"/><rect class="cls-2" x="189.24" y="67.83" width="9.56" height="9.56"/><rect class="cls-2" x="189.24" y="86.95" width="9.56" height="9.56"/><rect class="cls-2" x="189.24" y="106.08" width="9.56" height="9.56"/><rect class="cls-2" x="198.8" y="39.15" width="9.56" height="9.56"/><rect class="cls-2" x="198.8" y="58.27" width="9.56" height="9.56"/><rect class="cls-2" x="198.8" y="77.39" width="9.56" height="9.56"/><rect class="cls-2" x="198.8" y="96.52" width="9.56" height="9.56"/><rect class="cls-2" x="151" y="156.27" width="9.56" height="9.56"/><rect class="cls-2" x="151" y="175.4" width="9.56" height="9.56"/><rect class="cls-2" x="151" y="194.52" width="9.56" height="9.56"/><rect class="cls-2" x="151" y="213.64" width="9.56" height="9.56"/><rect class="cls-2" x="160.56" y="146.71" width="9.56" height="9.56"/><rect class="cls-2" x="160.56" y="165.83" width="9.56" height="9.56"/><rect class="cls-2" x="160.56" y="184.96" width="9.56" height="9.56"/><rect class="cls-2" x="160.56" y="204.08" width="9.56" height="9.56"/><rect class="cls-2" x="160.56" y="223.2" width="9.56" height="9.56"/><rect class="cls-2" x="170.12" y="156.27" width="9.56" height="9.56"/><rect class="cls-2" x="151" y="137.15" width="9.56" height="9.56"/><rect class="cls-2" x="170.12" y="137.15" width="9.56" height="9.56"/><rect class="cls-2" x="170.12" y="175.4" width="9.56" height="9.56"/><rect class="cls-2" x="170.12" y="194.52" width="9.56" height="9.56"/><rect class="cls-2" x="170.12" y="213.64" width="9.56" height="9.56"/><rect class="cls-2" x="151" y="232.76" width="9.56" height="9.56"/><rect class="cls-2" x="151" y="251.89" width="9.56" height="9.56"/><rect class="cls-2" x="160.56" y="242.32" width="9.56" height="9.56"/><rect class="cls-2" x="160.56" y="261.45" width="9.56" height="9.56"/><rect class="cls-2" x="170.12" y="232.76" width="9.56" height="9.56"/><rect class="cls-2" x="170.12" y="251.89" width="9.56" height="9.56"/><rect class="cls-2" x="45.82" y="129.98" width="16.73" height="143.42"/><rect class="cls-2" x="201.19" y="129.98" width="21.51" height="143.42"/><rect class="cls-2" x="103.19" y="129.98" width="47.81" height="143.42"/><rect x="12.36" y="120.42" width="223.14" height="10.54"/><path d="M239.44,10.46V114.74H9.27V10.46H239.44M249,.9H-.29V124.3H249V.9Z"/><polygon points="229.86 273.4 220.3 273.4 220.3 131.9 24.31 131.9 24.31 273.4 14.75 273.4 14.75 122.34 229.86 122.34 229.86 273.4"/></g></svg>